<svg width="34" height="23" viewBox="0 0 34 23" fill="none" xmlns="http://www.w3.org/2000/svg">
<rect x="0.25" y="0.25" width="32.6445" height="22.2276" rx="1.25" fill="#1F72CD" stroke="#D9D9D9" stroke-width="0.5"/>
<path fill-rule="evenodd" clip-rule="evenodd" d="M5.97308 7.98376L2.883 15.0231H6.58225L7.04085 13.9008H8.08911L8.54771 15.0231H12.6196V14.1665L12.9824 15.0231H15.0887L15.4515 14.1484V15.0231H23.9198L24.9495 13.9299L25.9137 15.0231L30.2632 15.0322L27.1634 11.5231L30.2632 7.98376H25.9812L24.9788 9.05678L24.045 7.98376H14.8326L14.0415 9.80069L13.2318 7.98376H9.54031V8.81124L9.12965 7.98376H5.97308ZM18.6213 8.98279H23.4842L24.9715 10.6366L26.5068 8.98279H27.9942L25.7343 11.5215L27.9942 14.031H26.4394L24.952 12.358L23.4089 14.031H18.6213V8.98279ZM19.8205 10.9517V10.0296V10.0287H22.8548L24.1788 11.5034L22.7961 12.9861H19.8205V11.9794H22.4734V10.9517H19.8205ZM6.6906 8.98279H8.49379L10.5434 13.7562V8.98279H12.5188L14.1019 12.4053L15.5609 8.98279H17.5264V14.034H16.3304L16.3207 10.0759L14.5771 14.034H13.5073L11.754 10.0759V14.034H9.29366L8.82723 12.9016H6.30729L5.84183 14.033H4.52362L6.6906 8.98279ZM6.73846 11.8556L7.56869 9.83826L8.39794 11.8556H6.73846Z" fill="white"/>
</svg>
