<svg width="27" height="24" viewBox="0 0 27 24" fill="none" xmlns="http://www.w3.org/2000/svg">
<path d="M9.75 23.375C10.7165 23.375 11.5 22.5915 11.5 21.625C11.5 20.6585 10.7165 19.875 9.75 19.875C8.7835 19.875 8 20.6585 8 21.625C8 22.5915 8.7835 23.375 9.75 23.375Z" fill="#141B4D"/>
<path d="M21.125 23.375C22.0915 23.375 22.875 22.5915 22.875 21.625C22.875 20.6585 22.0915 19.875 21.125 19.875C20.1585 19.875 19.375 20.6585 19.375 21.625C19.375 22.5915 20.1585 23.375 21.125 23.375Z" fill="#141B4D"/>
<path d="M5.62656 5.875H25.2484L22.3609 15.9812C22.2579 16.348 22.0373 16.6708 21.733 16.9C21.4287 17.1293 21.0575 17.2522 20.6766 17.25H10.1984C9.81747 17.2522 9.44631 17.1293 9.14201 16.9C8.8377 16.6708 8.61709 16.348 8.51406 15.9812L4.55469 2.13438C4.50237 1.95145 4.39185 1.79056 4.23987 1.67609C4.0879 1.56162 3.90276 1.4998 3.7125 1.5H1.875" stroke="#141B4D" stroke-width="2" stroke-linecap="round" stroke-linejoin="round"/>
</svg>
