<svg width="19" height="18" viewBox="0 0 19 18" fill="none" xmlns="http://www.w3.org/2000/svg">
<path d="M17.5049 4.851L11.5674 1.75725C11.4798 1.71155 11.3813 1.68759 11.2812 1.68759C11.1812 1.68759 11.0827 1.71155 10.9951 1.75725L5.05756 4.851C4.96447 4.89955 4.88684 4.97089 4.83277 5.05756C4.7787 5.14424 4.75018 5.24307 4.75018 5.34375C4.75018 5.44442 4.7787 5.54325 4.83277 5.62993C4.88684 5.7166 4.96447 5.78794 5.05756 5.8365L10.6875 8.76993V14.7994L8.88487 13.86L8.3125 14.8449L10.9951 16.2427C11.0827 16.2884 11.1812 16.3124 11.2812 16.3124C11.3813 16.3124 11.4798 16.2884 11.5674 16.2427L17.5049 13.149C17.5981 13.1005 17.6757 13.0291 17.7298 12.9425C17.7839 12.8558 17.8125 12.7569 17.8125 12.6562V5.34375C17.8125 5.24305 17.7839 5.14421 17.7298 5.05753C17.6757 4.97086 17.5981 4.89953 17.5049 4.851ZM11.2812 2.89237L15.9867 5.34375L11.2812 7.79512L6.57578 5.34375L11.2812 2.89237ZM16.625 12.3238L11.875 14.7988V8.76937L16.625 6.29437V12.3238Z" fill="#5D5D5D"/>
<path d="M5.9375 9H1.1875V7.875H5.9375V9ZM7.125 13.5H2.375V12.375H7.125V13.5ZM8.3125 11.25H3.5625V10.125H8.3125V11.25Z" fill="#5D5D5D"/>
</svg>
