<svg width="34" height="23" viewBox="0 0 34 23" fill="none" xmlns="http://www.w3.org/2000/svg">
<path d="M2.13281 0.25H32.2773C32.9677 0.250028 33.5273 0.809661 33.5273 1.5V21.2275C33.5273 21.9179 32.9677 22.4775 32.2773 22.4775H2.13281C1.44246 22.4775 0.882812 21.9179 0.882812 21.2275V1.5C0.882812 0.809644 1.44246 0.25 2.13281 0.25Z" fill="white" stroke="#D9D9D9" stroke-width="0.5"/>
<path d="M14.0002 21.9999L33.0002 14.9999V20.9999C33.0002 21.5522 32.5525 21.9999 32.0002 21.9999H14.0002Z" fill="#FD6020"/>
<path d="M22.1447 11.6801L23.3498 8.62833H24.2541L22.3957 13.2582H21.9435L20.0861 8.62833H20.9894L22.1447 11.6801ZM14.259 8.62736C14.6105 8.62736 15.0124 8.67872 15.3137 8.88224V9.89982C15.0626 9.59455 14.6607 9.39103 14.259 9.39103C13.4557 9.44199 12.8025 10.1542 12.8527 10.9682V11.0697C12.8527 11.8838 13.5064 12.4945 14.3098 12.4945C14.7113 12.4944 15.0627 12.2909 15.3137 11.9858V13.0033C14.9623 13.1559 14.6107 13.2572 14.2092 13.2572C12.9539 13.2572 11.9495 12.1893 11.9494 10.9174C11.9494 9.59461 12.9536 8.52571 14.259 8.62736ZM10.2443 8.52579C10.6961 8.52582 11.1478 8.72948 11.4992 9.03458L11.048 9.64493C10.8473 9.4415 10.5959 9.28957 10.3449 9.28947C10.0436 9.23859 9.79258 9.49298 9.74237 9.79825C9.74245 10.0525 9.89281 10.1544 10.3947 10.3578C11.3987 10.7648 11.6501 11.0699 11.7004 11.6801V11.8334C11.6501 12.6474 10.9968 13.2573 10.1935 13.2065C9.59123 13.2063 8.9889 12.9016 8.68768 12.3422L9.24042 11.7826C9.39114 12.1385 9.74223 12.393 10.1437 12.393H10.1935C10.4947 12.393 10.7958 12.0878 10.7961 11.7318C10.7961 11.5283 10.6957 11.3756 10.5451 11.2738C10.3443 11.1721 10.1433 11.0698 9.94257 11.019C9.1396 10.7646 8.88891 10.4086 8.88885 9.79825V9.74747C8.93907 9.03517 9.54137 8.47492 10.2443 8.52579ZM5.02167 8.62833C6.22657 8.67921 7.18099 9.69652 7.13104 10.9174C7.13092 11.5787 6.82934 12.1901 6.32733 12.6479C5.87552 13.0038 5.32282 13.2075 4.77069 13.1567H3.51581V8.62833H5.02167ZM28.8723 8.62833C29.8764 8.62838 30.4289 9.08669 30.4289 9.95158C30.4787 10.6126 30.0272 11.1721 29.425 11.2738L30.7805 13.1567H29.7258L28.5715 11.3246H28.4709V13.1567H27.6174V8.62833H28.8723ZM8.33807 13.1557H7.48456V8.62833H8.33807V13.1557ZM27.0666 9.39103H25.5099V10.4086H27.0168V11.1713H25.5099V12.393H27.0666V13.1557H24.6564V8.62833H27.0666V9.39103ZM4.62225 9.39103H4.37128V12.393H4.62225C5.02384 12.4438 5.47627 12.2918 5.77753 12.0375C6.0787 11.7323 6.22861 11.3243 6.2287 10.8666C6.22861 10.4598 6.07851 10.0526 5.77753 9.74747C5.47626 9.49308 5.02394 9.34015 4.62225 9.39103ZM28.4728 10.7143H28.7238C29.2758 10.7142 29.5273 10.4598 29.5275 10.0024C29.5275 9.59537 29.276 9.34127 28.7238 9.34122H28.4728V10.7143Z" fill="black"/>
<path fill-rule="evenodd" clip-rule="evenodd" d="M17.8762 8.52277C16.6209 8.52277 15.5665 9.54034 15.5665 10.8632C15.5665 12.1351 16.5707 13.2036 17.8762 13.2545C19.1817 13.3054 20.1859 12.2369 20.2361 10.9141C20.1859 9.59122 19.1817 8.52277 17.8762 8.52277V8.52277Z" fill="#FD6020"/>
</svg>
