<svg width="33" height="23" viewBox="0 0 33 23" fill="none" xmlns="http://www.w3.org/2000/svg">
<rect x="0.539062" y="0.25" width="31.6975" height="22.2276" rx="1.25" fill="white" stroke="#D9D9D9" stroke-width="0.5"/>
<path d="M21.2461 4.25098C25.1317 4.25098 28.2822 7.39474 28.2822 11.2725C28.2821 15.1501 25.1316 18.293 21.2461 18.293C19.5046 18.2929 17.9121 17.6603 16.6836 16.6143C15.455 17.6602 13.8625 18.293 12.1211 18.293C8.23574 18.2928 5.08608 15.1499 5.08594 11.2725C5.08594 7.39486 8.23565 4.25116 12.1211 4.25098C13.8624 4.25098 15.4551 4.88385 16.6836 5.92969C17.9121 4.88372 19.5047 4.25106 21.2461 4.25098Z" fill="#ED0006"/>
<path d="M21.2464 4.25098C25.132 4.25098 28.2816 7.39474 28.2816 11.2725C28.2814 15.1501 25.1319 18.293 21.2464 18.293C19.5049 18.293 17.9125 17.6603 16.6839 16.6143C18.1964 15.3265 19.1565 13.4121 19.1566 11.2725C19.1566 9.13265 18.1966 7.21751 16.6839 5.92969C17.9125 4.88375 19.505 4.25098 21.2464 4.25098Z" fill="#F9A000"/>
<path d="M16.6836 5.92929C18.1965 7.21709 19.1572 9.13212 19.1572 11.2721C19.1572 13.4118 18.1961 15.326 16.6836 16.6139C15.1713 15.326 14.2109 13.4116 14.2109 11.2721C14.211 9.13231 15.171 7.21709 16.6836 5.92929Z" fill="#FF5E00"/>
</svg>
