<svg width="34" height="23" viewBox="0 0 34 23" fill="none" xmlns="http://www.w3.org/2000/svg">
<rect x="1.02344" y="0.25" width="32.6445" height="22.2276" rx="1.25" fill="#B2FCE4" stroke="#D9D9D9" stroke-width="0.5"/>
<path d="M30.5899 9.81643L29.7768 9.3511L28.9519 8.87873C28.4067 8.56616 27.7251 8.95863 27.7251 9.58846V9.69422C27.7251 9.75297 27.7557 9.80703 27.8074 9.83523L28.1905 10.0538C28.2962 10.1149 28.4278 10.0373 28.4278 9.91513V9.66367C28.4278 9.53911 28.5618 9.46156 28.6699 9.52266L29.4219 9.95508L30.1716 10.3852C30.2797 10.4463 30.2797 10.6037 30.1716 10.6648L29.4219 11.0949L28.6699 11.5273C28.5618 11.5884 28.4278 11.5109 28.4278 11.3863V11.2618C28.4278 10.6319 27.7463 10.2371 27.2011 10.552L26.3762 11.0244L25.563 11.4897C25.0154 11.8046 25.0154 12.5966 25.563 12.9115L26.3762 13.3769L27.2011 13.8492C27.7463 14.1618 28.4278 13.7693 28.4278 13.1395V13.0337C28.4278 12.975 28.3973 12.9209 28.3456 12.8927L27.9625 12.6742C27.8567 12.6131 27.7251 12.6906 27.7251 12.8128V13.0643C27.7251 13.1889 27.5912 13.2664 27.4831 13.2053L26.731 12.7729L25.9814 12.3428C25.8732 12.2817 25.8732 12.1242 25.9814 12.0631L26.731 11.6331L27.4831 11.2006C27.5912 11.1395 27.7251 11.2171 27.7251 11.3417V11.4662C27.7251 12.096 28.4067 12.4909 28.9519 12.176L29.7768 11.7036L30.5899 11.2383C31.1375 10.921 31.1375 10.1313 30.5899 9.81643Z" fill="black"/>
<path d="M25.2545 9.9715L23.3509 13.9033H22.5613L23.2734 12.4344L22.1524 9.9715H22.9632L23.6823 11.6213L24.4672 9.9715H25.2545Z" fill="black"/>
<path d="M6.22087 11.3675C6.22087 10.8975 5.8801 10.5685 5.46178 10.5685C5.04346 10.5685 4.70269 10.9045 4.70269 11.3675C4.70269 11.8258 5.04346 12.1665 5.46178 12.1665C5.8801 12.1665 6.22087 11.8375 6.22087 11.3675ZM6.22792 12.7635V12.4016C6.02111 12.653 5.71324 12.8081 5.34662 12.8081C4.58048 12.8081 4 12.1948 4 11.3675C4 10.5473 4.60398 9.92218 5.36307 9.92218C5.72029 9.92218 6.02111 10.0796 6.22792 10.3241V9.97153H6.91415V12.7635H6.22792Z" fill="black"/>
<path d="M10.2527 12.1429C10.013 12.1429 9.94483 12.0536 9.94483 11.8186V10.5801H10.3867V9.97138H9.94483V9.28985H9.24214V9.97138H8.335V9.69407C8.335 9.45906 8.4243 9.36975 8.67106 9.36975H8.82617V8.82922H8.48775C7.90727 8.82922 7.63231 9.01958 7.63231 9.60006V9.97373H7.24219V10.5801H7.63231V12.7633H8.335V10.5801H9.24214V11.9478C9.24214 12.5166 9.4607 12.7633 10.0294 12.7633H10.3914V12.1429H10.2527Z" fill="black"/>
<path d="M12.7745 11.1163C12.7252 10.7543 12.4291 10.5358 12.0813 10.5358C11.7358 10.5358 11.4491 10.7473 11.3786 11.1163H12.7745ZM11.3715 11.551C11.4209 11.9647 11.717 12.1997 12.093 12.1997C12.3891 12.1997 12.6171 12.061 12.751 11.8377H13.4725C13.3057 12.43 12.7745 12.8083 12.0766 12.8083C11.2329 12.8083 10.6406 12.2161 10.6406 11.3724C10.6406 10.5287 11.2658 9.92004 12.093 9.92004C12.9249 9.92004 13.5289 10.5334 13.5289 11.3724C13.5289 11.4335 13.5242 11.4946 13.5125 11.551H11.3715Z" fill="black"/>
<path d="M18.0044 11.3675C18.0044 10.9163 17.6636 10.5685 17.2453 10.5685C16.827 10.5685 16.4862 10.9045 16.4862 11.3675C16.4862 11.8258 16.827 12.1665 17.2453 12.1665C17.6636 12.1665 18.0044 11.8211 18.0044 11.3675ZM15.7929 13.9033V9.97153H16.4792V10.3335C16.686 10.0773 16.9939 9.91983 17.3605 9.91983C18.1149 9.91983 18.7071 10.5403 18.7071 11.3605C18.7071 12.1807 18.1031 12.8058 17.344 12.8058C16.9915 12.8058 16.7024 12.6671 16.5003 12.4321V13.9009H15.7929V13.9033Z" fill="black"/>
<path d="M21.1818 11.3675C21.1818 10.8975 20.841 10.5685 20.4227 10.5685C20.0044 10.5685 19.6636 10.9045 19.6636 11.3675C19.6636 11.8258 20.0044 12.1665 20.4227 12.1665C20.841 12.1665 21.1818 11.8375 21.1818 11.3675ZM21.1888 12.7635V12.4016C20.982 12.653 20.6741 12.8081 20.3075 12.8081C19.5414 12.8081 18.9609 12.1948 18.9609 11.3675C18.9609 10.5473 19.5649 9.92218 20.324 9.92218C20.6812 9.92218 20.982 10.0796 21.1888 10.3241V9.97153H21.8751V12.7635H21.1888Z" fill="black"/>
<path d="M14.5558 10.2444C14.5558 10.2444 14.7297 9.92004 15.1598 9.92004C15.3431 9.92004 15.4606 9.9835 15.4606 9.9835V10.6956C15.4606 10.6956 15.2021 10.5358 14.9647 10.5687C14.7273 10.6016 14.5769 10.8178 14.5769 11.1092V12.7613H13.8672V9.97175H14.5534V10.2444H14.5558Z" fill="black"/>
</svg>
